<?xml version="1.0" encoding="UTF-8"?> <svg xmlns="http://www.w3.org/2000/svg" id="LOGO" viewBox="0 0 1412.17331 453.53828"><defs><style> .cls-1 { fill: #2e2d62; } .cls-2 { fill: #fff; } .cls-3 { fill: #00bed5; } .cls-4 { fill: #008aad; } </style></defs><g><g><rect class="cls-1" x="85.03953" y="85.03554" width="283.46325" height="283.46325"></rect><path class="cls-2" d="M337.30668,116.23152H304.25542l-44.43267,47.31625V116.23152H195.61587v62.81185c0,13.44694-9.95655,21.25377-23.16457,21.25377s-23.165-7.80683-23.165-21.25377V116.23152H116.235v63.29176c0,28.34575,22.88515,44.60632,48.70141,47.24386H116.235V337.30275h33.05127V296.33692h14.43776l30.5426,40.96562h143.04V314.97667h-38.742V249.09306h38.742V219.93144l-47.37411-48.50869,47.37411-48.35553ZM226.77107,192.95183v51.28164c-7.03742-11.88409-23.22232-17.4019-47.24379-17.46236C200.96237,224.59427,220.77821,213.0296,226.77107,192.95183Zm-77.48476,56.14123h30.24085c12.43256,0,17.471,4.81924,17.471,12.38239s-5.03842,12.5356-17.471,12.5356H149.28631Zm116.22714,65.88361H226.77107v15.49018l-27.26922-35.73877c20.76255-3.82232,31.48464-14.55826,31.48464-33.25263a36.83265,36.83265,0,0,0-1.95518-12.38239h36.48214Zm38.742-88.20953H259.82275V179.31959Z"></path></g><g><polygon class="cls-3" points="425.967 85.033 391.274 49.507 368.503 49.507 368.503 85.033 368.503 368.499 564.289 368.499 564.289 226.666 425.967 85.033"></polygon><polygon class="cls-4" points="425.967 85.033 564.289 226.666 564.289 368.499 651.967 368.499 651.967 85.033 425.967 85.033"></polygon></g><g><path class="cls-1" d="M785.94727,172.44775H775.56152V135.0127H774.918l-14.00781,30.99462h-10.707L736.11426,135.0127h-.64356v37.43505H725.085V116.09424h13.042l17.14746,38.64258h.64454l17.0664-38.64258h12.96192Z"></path><path class="cls-1" d="M828.18262,172.44775l-11.75391-21.978H807.252v21.978H796.86621V116.09424H819.166c11.27148,0,18.19433,6.68164,18.19433,16.584a16.27226,16.27226,0,0,1-10.86816,15.85938l12.96191,23.91015ZM807.252,141.45312h10.707c5.47461,0,8.77442-3.46142,8.77442-8.21142,0-4.99121-3.29981-8.13086-8.77442-8.13086H807.252Z"></path><path class="cls-1" d="M871.20215,173.25293c-17.22754,0-27.69336-12.15625-27.69336-28.74072,0-17.0669,11.10937-29.22315,27.69336-29.22315,12.71973,0,22.86328,6.76221,24.7959,19.24073H884.56641c-1.77149-5.79639-6.52149-9.41895-13.36426-9.41895-10.0625,0-16.8252,8.45264-16.8252,19.40137,0,11.35156,7.24512,18.91894,16.8252,18.91894,7.32617,0,12.47851-3.62256,14.25-9.09717h11.43164C895.03223,166.40967,884.24414,173.25293,871.20215,173.25293Z"></path><path class="cls-1" d="M964.41992,162.94824v9.49951H925.93848V116.09424h10.38574v46.854Z"></path><path class="cls-1" d="M1008.53418,164.71924v7.72851h-4.34766c-3.7832,0-6.76172-1.127-8.13086-4.83007-2.7373,3.46142-6.92382,5.63525-13.2832,5.63525-8.21191,0-14.25-3.86426-14.25-11.83447,0-7.72852,5.87695-11.51221,13.28418-12.23682l12.55859-1.28809v-1.69043c0-4.42773-2.81738-6.60156-6.76269-6.60156-4.34766,0-6.60156,2.415-7.24512,6.03809H970.05273c.80469-8.37256,7.24512-14.24951,17.54981-14.24951,9.41894,0,17.06738,4.74951,17.06738,15.53759v14.73243c0,2.09326.96582,3.05908,2.89844,3.05908ZM994.36523,154.978l-9.0166.96631c-3.70312.40234-6.52148,1.93212-6.52148,5.07177,0,3.22022,2.49609,4.34717,5.7168,4.34717,4.34668,0,9.82128-2.09326,9.82128-8.45312Z"></path><path class="cls-1" d="M1054.54,152.24072c0,12.80078-8.13086,21.01221-18.918,21.01221-6.28027,0-10.06348-2.979-11.99609-5.55518h-.72461l-.88477,4.75h-8.37305V115.28906h10.30469V135.979c2.17383-2.41552,6.19922-4.58886,11.67383-4.58886C1046.168,131.39014,1054.54,139.11865,1054.54,152.24072Zm-10.30469,0c0-7.08447-4.10547-11.91455-10.22363-11.91455s-10.06348,4.83008-10.06348,11.91455c0,7.24561,3.94531,12.07617,10.06348,12.07617S1044.23535,159.48633,1044.23535,152.24072Z"></path><path class="cls-1" d="M1059.1416,152.24072c0-12.39746,9.17774-20.85058,21.25293-20.85058,12.07617,0,21.25391,8.5332,21.25391,20.85058,0,12.47852-9.09668,21.01221-21.25391,21.01221C1068.39941,173.25293,1059.1416,164.63867,1059.1416,152.24072Zm32.28223,0c0-6.68164-4.42774-11.91455-11.0293-11.91455-6.60058,0-10.94824,5.23291-10.94824,11.91455,0,6.7627,4.34766,12.07617,10.94824,12.07617C1087.07715,164.31689,1091.42383,159.00342,1091.42383,152.24072Z"></path><path class="cls-1" d="M1107.85938,132.19482h9.33886l.96582,5.71631h.64453c2.49512-4.02539,5.23243-6.521,11.99512-6.521h2.89844v10.30468a26.32841,26.32841,0,0,0-4.34766-.32226c-8.85547,0-11.19043,6.521-11.19043,12.31738v18.75781h-10.30468Z"></path><path class="cls-1" d="M1175.72363,164.71924v7.72851H1171.376c-3.78321,0-6.76172-1.127-8.13086-4.83007-2.73731,3.46142-6.92383,5.63525-13.28321,5.63525-8.21191,0-14.25-3.86426-14.25-11.83447,0-7.72852,5.877-11.51221,13.28418-12.23682l12.5586-1.28809v-1.69043c0-4.42773-2.81739-6.60156-6.7627-6.60156-4.34765,0-6.60156,2.415-7.24511,6.03809h-10.30469c.80469-8.37256,7.24511-14.24951,17.5498-14.24951,9.41895,0,17.06739,4.74951,17.06739,15.53759v14.73243c0,2.09326.96582,3.05908,2.89843,3.05908Zm-14.16894-9.74121-9.0166.96631c-3.70313.40234-6.52149,1.93212-6.52149,5.07177,0,3.22022,2.4961,4.34717,5.7168,4.34717,4.34668,0,9.82129-2.09326,9.82129-8.45312Z"></path><path class="cls-1" d="M1184.31055,161.499V140.32617h-8.61426v-8.13135h2.7373c4.91114,0,6.84278-1.771,6.84278-6.11816v-4.83008h9.33886v10.94824h10.5459v8.13135h-10.5459v19.8042c0,2.2544.56348,4.99121,5.39356,4.99121a16.654,16.654,0,0,0,3.94531-.56347v7.80908a31.205,31.205,0,0,1-7.085.88574C1185.59863,173.25293,1184.31055,165.92676,1184.31055,161.499Z"></path><path class="cls-1" d="M1206.9707,152.24072c0-12.39746,9.17774-20.85058,21.25293-20.85058,12.07617,0,21.25391,8.5332,21.25391,20.85058,0,12.47852-9.09766,21.01221-21.25391,21.01221C1216.22852,173.25293,1206.9707,164.63867,1206.9707,152.24072Zm32.28223,0c0-6.68164-4.42773-11.91455-11.0293-11.91455-6.60058,0-10.94824,5.23291-10.94824,11.91455,0,6.7627,4.34766,12.07617,10.94824,12.07617C1234.90625,164.31689,1239.25293,159.00342,1239.25293,152.24072Z"></path><path class="cls-1" d="M1255.6875,132.19482h9.33887l.96582,5.71631h.64453c2.49512-4.02539,5.23242-6.521,11.99512-6.521h2.89843v10.30468a26.32829,26.32829,0,0,0-4.34765-.32226c-8.85547,0-11.19043,6.521-11.19043,12.31738v18.75781H1255.6875Z"></path><path class="cls-1" d="M1288.25,188.46826v-7.64795a20.90766,20.90766,0,0,0,4.18652.48291c3.78321,0,7.24512-1.36865,8.85547-5.39355l1.36914-3.46192h-3.2207l-15.377-40.25293h10.627l10.94922,29.70655h.64355l10.22461-29.70655h10.626L1310.87207,177.439c-1.207,3.54249-4.34766,11.915-16.10059,11.915A24.53849,24.53849,0,0,1,1288.25,188.46826Z"></path><path class="cls-1" d="M722.83105,234.74072c0-12.39746,9.17774-20.85058,21.25293-20.85058,12.07618,0,21.25391,8.5332,21.25391,20.85058,0,12.47852-9.09668,21.01172-21.25391,21.01172C732.08887,255.75244,722.83105,247.13916,722.83105,234.74072Zm32.28223,0c0-6.68164-4.42773-11.915-11.0293-11.915-6.60058,0-10.94824,5.2334-10.94824,11.915,0,6.7627,4.34766,12.07617,10.94824,12.07617C750.7666,246.81689,755.11328,241.50342,755.11328,234.74072Z"></path><path class="cls-1" d="M786.03223,214.69482h10.22461v8.13086H786.03223v32.12207H775.72754V222.82568h-8.45313v-8.13086h8.45313v-4.34668c0-8.373,5.55469-12.55957,13.44434-12.55957a23.35482,23.35482,0,0,1,7.72851,1.36914l-1.77148,7.48731a13.12067,13.12067,0,0,0-4.10547-.64453c-2.97852,0-4.99121,1.5293-4.99121,4.91113Z"></path><path class="cls-1" d="M884.72656,254.94775H874.34082V217.51318h-.64355l-14.00782,30.99414h-10.707l-14.08887-30.99414H834.25v37.43457H823.86426V198.59424h13.042l17.14746,38.64258h.64453l17.06641-38.64258h12.96191Z"></path><path class="cls-1" d="M892.39355,234.74072c0-12.39746,9.17774-20.85058,21.25293-20.85058,12.07618,0,21.25391,8.5332,21.25391,20.85058,0,12.47852-9.09668,21.01172-21.25391,21.01172C901.65137,255.75244,892.39355,247.13916,892.39355,234.74072Zm32.28223,0c0-6.68164-4.42773-11.915-11.0293-11.915-6.60058,0-10.94824,5.2334-10.94824,11.915,0,6.7627,4.34766,12.07617,10.94824,12.07617C920.3291,246.81689,924.67578,241.50342,924.67578,234.74072Z"></path><path class="cls-1" d="M941.21582,197.78857h10.30469v57.15918H941.21582Z"></path><path class="cls-1" d="M997.25391,242.228c-1.60938,8.292-8.53321,13.52441-18.75782,13.52441-11.99511,0-20.68945-8.13086-20.68945-20.52832,0-13.2832,9.17774-21.334,20.28711-21.334,9.90234,0,19.08008,6.27929,19.08008,20.68945,0,.9668-.08106,1.85156-.16113,2.97949H968.03027c.40332,5.7959,4.18653,9.98242,10.46582,9.98242,4.50879,0,7.72852-1.85156,8.85645-5.31347Zm-29.14258-11.59278h19.24121c-.24219-4.99121-3.94531-8.5332-9.25879-8.5332A9.7129,9.7129,0,0,0,968.11133,230.63525Z"></path><path class="cls-1" d="M1002.12891,234.98291c0-12.63965,9.17773-21.09277,20.93164-21.09277,9.33789,0,18.19433,4.99121,19.48242,15.53711h-10.30469c-.88574-3.70313-4.34765-6.60157-9.17773-6.60157-6.11914,0-10.627,4.99219-10.627,12.15723,0,7.084,4.18653,11.834,10.78809,11.834,4.669,0,7.80859-2.09375,9.09668-5.79687h10.38477c-1.36817,9.0166-9.01661,14.73242-19.48145,14.73242C1010.66211,255.75244,1002.12891,247.13916,1002.12891,234.98291Z"></path><path class="cls-1" d="M1086.7041,254.94775h-9.41894l-.88575-4.75h-.64355c-2.415,3.13965-5.79688,5.55469-11.835,5.55469-9.58008,0-15.69824-6.11816-15.69824-16.66406V214.69482h10.30468v22.29981c0,6.60156,3.78418,9.82226,8.69434,9.82226,4.83105,0,9.17773-3.13964,9.17773-10.30468V214.69482h10.30469Z"></path><path class="cls-1" d="M1094.62305,197.78857h10.30468v57.15918h-10.30468Z"></path><path class="cls-1" d="M1150.93457,247.21924v7.72851h-4.34766c-3.7832,0-6.76171-1.127-8.13086-4.83007-2.7373,3.46191-6.92382,5.63476-13.2832,5.63476-8.21191,0-14.25-3.86426-14.25-11.834,0-7.72852,5.877-11.51172,13.28418-12.23633l12.5586-1.28809v-1.6914c0-4.42774-2.81739-6.60059-6.7627-6.60059-4.34766,0-6.60156,2.415-7.24512,6.03711h-10.30468c.80468-8.37207,7.24511-14.249,17.5498-14.249,9.41895,0,17.06738,4.75,17.06738,15.53711v14.73242c0,2.09375.96582,3.05957,2.89844,3.05957Zm-14.16894-9.74121-9.01661.96582c-3.70312.40234-6.52148,1.93261-6.52148,5.07226,0,3.21973,2.49609,4.34766,5.7168,4.34766,4.34668,0,9.82129-2.09375,9.82129-8.45313Z"></path><path class="cls-1" d="M1156.043,214.69482h9.33887l.96582,5.71582h.64453c2.49511-4.02539,5.23242-6.5205,11.99511-6.5205h2.89844v10.30468a26.38167,26.38167,0,0,0-4.34765-.32226c-8.85547,0-11.19043,6.52148-11.19043,12.31738v18.75781H1156.043Z"></path><path class="cls-1" d="M766.30371,321.83008c0,9.90234-6.84277,15.61816-18.19433,15.61816H725.085v-56.354h23.18555c11.11035,0,16.42285,5.7959,16.42285,14.08789,0,6.76318-3.70313,10.144-7.80859,12.07666v.4834C760.91016,309.19043,766.30371,313.13574,766.30371,321.83008Zm-30.833-17.63086h11.18946c4.83105,0,7.40722-2.89746,7.40722-7.32568,0-4.50879-2.89843-7.2461-7.24609-7.2461H735.4707Zm19.96485,16.82617c0-4.75-3.05957-8.292-8.292-8.292H735.4707V328.915h11.67285C752.61816,328.915,755.43555,325.61426,755.43555,321.02539Z"></path><path class="cls-1" d="M772.249,285.84424a6.356,6.356,0,0,1,6.35938-6.28028,6.22,6.22,0,0,1,6.19922,6.28028,6.30761,6.30761,0,0,1-6.19922,6.19824A6.45032,6.45032,0,0,1,772.249,285.84424Zm1.207,11.35058h10.30469v40.25342H773.45605Z"></path><path class="cls-1" d="M789.709,317.24121c0-12.39746,9.17774-20.85107,21.25293-20.85107,12.07618,0,21.25391,8.53369,21.25391,20.85107,0,12.47852-9.09766,21.01172-21.25391,21.01172C798.9668,338.25293,789.709,329.63965,789.709,317.24121Zm32.28223,0c0-6.68164-4.42773-11.915-11.0293-11.915-6.60058,0-10.94824,5.2334-10.94824,11.915,0,6.7627,4.34766,12.07617,10.94824,12.07617C817.64453,329.31738,821.99121,324.00391,821.99121,317.24121Z"></path><path class="cls-1" d="M838.53125,280.28857h10.30469v57.15967H838.53125Z"></path><path class="cls-1" d="M854.98438,317.24121c0-12.39746,9.17773-20.85107,21.25292-20.85107,12.07618,0,21.25391,8.53369,21.25391,20.85107,0,12.47852-9.09766,21.01172-21.25391,21.01172C864.24219,338.25293,854.98438,329.63965,854.98438,317.24121Zm32.28222,0c0-6.68164-4.42773-11.915-11.0293-11.915-6.60058,0-10.94824,5.2334-10.94824,11.915,0,6.7627,4.34766,12.07617,10.94824,12.07617C882.91992,329.31738,887.2666,324.00391,887.2666,317.24121Z"></path><path class="cls-1" d="M934.88965,302.75a12.12294,12.12294,0,0,1,2.57617,7.56836c0,8.5332-7.32617,13.52441-16.90625,13.52441a25.01742,25.01742,0,0,1-6.76269-.88574,2.94656,2.94656,0,0,0-1.93165,2.65723c0,2.334,2.57618,3.05859,5.31348,3.05859h7.88867c9.66114,0,14.65235,4.66992,14.65235,11.915,0,8.61426-7.24512,13.7666-18.91895,13.7666-12.7998,0-18.75781-6.36035-19.5625-13.52539l6.11817-5.39355a8.318,8.318,0,0,1-4.58887-7.40625c0-3.78418,2.49609-6.2793,5.39453-7.88965a12.02177,12.02177,0,0,1-4.75-9.82129c0-7.88965,6.35937-13.92822,16.66406-13.92822a21.01381,21.01381,0,0,1,9.33887,2.01269,20.94091,20.94091,0,0,0,6.92383-5.71582l5.07129,5.63477A23.38587,23.38587,0,0,1,934.88965,302.75ZM923.7793,336.72363h-7.3252l-5.31347,4.50879c.88574,2.81738,3.86425,5.39356,9.74121,5.39356,4.91015,0,9.0166-1.77149,9.0166-5.47461C929.89844,337.77051,926.75879,336.72363,923.7793,336.72363Zm3.86425-26.5664c0-3.70313-2.65625-6.36035-7.084-6.36035-4.50879,0-7.32617,2.65722-7.32617,6.36035,0,3.542,2.81738,6.19824,7.32617,6.19824C924.9873,316.35547,927.64355,313.69922,927.64355,310.15723Z"></path><path class="cls-1" d="M948.16992,353.46875v-7.64746a20.94006,20.94006,0,0,0,4.18653.48242c3.7832,0,7.24511-1.36816,8.85546-5.39355l1.36914-3.46192h-3.2207l-15.377-40.25342h10.627l10.94922,29.70752h.64356l10.2246-29.70752h10.626L970.792,342.43945c-1.207,3.542-4.34765,11.915-16.10058,11.915A24.51844,24.51844,0,0,1,948.16992,353.46875Z"></path></g></g></svg> 