<?xml version="1.0" encoding="UTF-8" standalone="no"?>
<svg
   width="5917"
   height="4409"
   xml:space="preserve"
   overflow="hidden"
   version="1.1"
   id="svg875"
   xmlns="http://www.w3.org/2000/svg"
   xmlns:svg="http://www.w3.org/2000/svg"><defs
     id="defs851"><rect
       x="523.24708"
       y="85.77821"
       width="1621.2081"
       height="437.46887"
       id="rect4418" /><clipPath
       id="clip0"><rect
         x="201"
         y="27"
         width="5917"
         height="4409"
         id="rect848" /></clipPath><rect
       x="523.24708"
       y="85.77821"
       width="1621.2081"
       height="437.46887"
       id="rect50467" /><rect
       x="523.24707"
       y="85.778214"
       width="1621.2081"
       height="437.46887"
       id="rect50467-8" /><rect
       x="523.24707"
       y="85.778214"
       width="1621.2081"
       height="437.46887"
       id="rect50467-1" /><rect
       x="523.24707"
       y="85.778214"
       width="1621.2081"
       height="437.46887"
       id="rect50467-1-3" /></defs><g
     clip-path="url(#clip0)"
     transform="translate(-201 -27)"
     id="g873"><rect
       x="205.5"
       y="30.5001"
       width="5907"
       height="4402"
       stroke="#FFFFFF"
       stroke-width="4.58333"
       stroke-linecap="butt"
       stroke-linejoin="miter"
       stroke-miterlimit="8"
       stroke-opacity="1"
       fill="#FFFFFF"
       fill-opacity="1"
       id="rect853" /><path
       d="M1547 1201C1547 854.718 1827.72 574 2174 574 2520.28 574 2801 854.718 2801 1201 2801 1547.28 2520.28 1828 2174 1828 1827.72 1828 1547 1547.28 1547 1201Z"
       stroke="#2D8AAD"
       stroke-width="32.0833"
       stroke-linecap="butt"
       stroke-linejoin="miter"
       stroke-miterlimit="8"
       stroke-opacity="1"
       fill="#FFFFFF"
       fill-rule="evenodd"
       fill-opacity="1"
       id="path855" /><path
       d="M660 1201C660 854.718 940.717 574 1287 574 1633.28 574 1914 854.718 1914 1201 1914 1547.28 1633.28 1828 1287 1828 940.717 1828 660 1547.28 660 1201Z"
       stroke="#2D8AAD"
       stroke-width="32.0833"
       stroke-linecap="butt"
       stroke-linejoin="miter"
       stroke-miterlimit="8"
       stroke-opacity="1"
       fill="#2D8AAD"
       fill-rule="evenodd"
       fill-opacity="1"
       id="path857" /><path
       d="M3508 1201C3508 854.718 3788.72 574 4135 574 4481.28 574 4762 854.718 4762 1201 4762 1547.28 4481.28 1828 4135 1828 3788.72 1828 3508 1547.28 3508 1201Z"
       stroke="#2D8AAD"
       stroke-width="32.0833"
       stroke-linecap="butt"
       stroke-linejoin="miter"
       stroke-miterlimit="8"
       stroke-opacity="1"
       fill="#FFFFFF"
       fill-rule="evenodd"
       fill-opacity="1"
       id="path859" /><path
       d="M4395 1201C4395 854.718 4675.72 574 5022 574 5368.28 574 5649 854.718 5649 1201 5649 1547.28 5368.28 1828 5022 1828 4675.72 1828 4395 1547.28 4395 1201Z"
       stroke="#2D8AAD"
       stroke-width="32.0833"
       stroke-linecap="butt"
       stroke-linejoin="miter"
       stroke-miterlimit="8"
       stroke-opacity="1"
       fill="#2D8AAD"
       fill-rule="evenodd"
       fill-opacity="1"
       id="path861" /><path
       d="M4325 3276C4325 2929.72 4605.72 2649 4952 2649 5298.28 2649 5579 2929.72 5579 3276 5579 3622.28 5298.28 3903 4952 3903 4605.72 3903 4325 3622.28 4325 3276Z"
       stroke="#2D8AAD"
       stroke-width="32.0833"
       stroke-linecap="butt"
       stroke-linejoin="miter"
       stroke-miterlimit="8"
       stroke-opacity="1"
       fill="#2D8AAD"
       fill-rule="evenodd"
       fill-opacity="1"
       id="path863" /><path
       d="M3439 3276C3439 2929.72 3719.72 2649 4066 2649 4412.28 2649 4693 2929.72 4693 3276 4693 3622.28 4412.28 3903 4066 3903 3719.72 3903 3439 3622.28 3439 3276Z"
       stroke="#2D8AAD"
       stroke-width="32.0833"
       stroke-linecap="butt"
       stroke-linejoin="miter"
       stroke-miterlimit="8"
       stroke-opacity="1"
       fill="#2D8AAD"
       fill-rule="evenodd"
       fill-opacity="1"
       id="path865" /><path
       d="M1547 3276C1547 2929.72 1827.72 2649 2174 2649 2520.28 2649 2801 2929.72 2801 3276 2801 3622.28 2520.28 3903 2174 3903 1827.72 3903 1547 3622.28 1547 3276Z"
       stroke="#2D8AAD"
       stroke-width="32.0833"
       stroke-linecap="butt"
       stroke-linejoin="miter"
       stroke-miterlimit="8"
       stroke-opacity="1"
       fill="none"
       fill-rule="evenodd"
       id="path867" /><path
       d="M660 3276C660 2929.72 940.717 2649 1287 2649 1633.28 2649 1914 2929.72 1914 3276 1914 3622.28 1633.28 3903 1287 3903 940.717 3903 660 3622.28 660 3276Z"
       stroke="#2D8AAD"
       stroke-width="32.0833"
       stroke-linecap="butt"
       stroke-linejoin="miter"
       stroke-miterlimit="8"
       stroke-opacity="1"
       fill="none"
       fill-rule="evenodd"
       id="path869" /><path
       d="M1514 3283.5C1514 3030.28 1614.29 2825 1738 2825 1861.71 2825 1962 3030.28 1962 3283.5 1962 3536.72 1861.71 3742 1738 3742 1614.29 3742 1514 3536.72 1514 3283.5Z"
       fill="#2D8AAD"
       fill-rule="evenodd"
       fill-opacity="1"
       id="path871" /></g><g
     aria-label="how = left"
     transform="translate(403.15758,68.622568)"
     id="text4416"
     style="font-size:40px;line-height:1.25;white-space:pre;shape-inside:url(#rect4418);fill:#318caf"><path
       d="M 540.82424,325.97882 V 135.09317 h 23.43753 v 68.48966 q 16.40627,-19.01044 41.4063,-19.01044 15.3646,0 26.69274,6.1198 11.32814,5.98959 16.14585,16.66669 4.94793,10.6771 4.94793,30.98962 v 87.63032 H 630.01706 V 238.3485 q 0,-17.57815 -7.6823,-25.52086 -7.5521,-8.07293 -21.4844,-8.07293 -10.41668,0 -19.66149,5.46876 -9.11459,5.33854 -13.02085,14.58335 -3.90625,9.2448 -3.90625,25.52086 v 75.65114 z"
       style="font-size:266.667px;font-family:Arial;-inkscape-font-specification:'Arial, Normal'"
       id="path31410" /><path
       d="m 680.53795,256.83811 q 0,-38.41151 21.3542,-56.90111 17.83856,-15.36461 43.48963,-15.36461 28.51566,0 46.61464,18.75003 18.09898,18.61981 18.09898,51.56256 0,26.69274 -8.07292,42.05734 -7.94272,15.2344 -23.30732,23.69795 -15.2344,8.46355 -33.33338,8.46355 -29.03649,0 -47.00526,-18.61981 -17.83857,-18.61982 -17.83857,-53.6459 z m 24.08858,0 q 0,26.56253 11.58855,39.8438 11.58856,13.15105 29.1667,13.15105 17.44794,0 29.0365,-13.28126 11.58855,-13.28127 11.58855,-40.49484 0,-25.65108 -11.71876,-38.80213 -11.58856,-13.28127 -28.90629,-13.28127 -17.57814,0 -29.1667,13.15106 -11.58855,13.15105 -11.58855,39.71359 z"
       style="font-size:266.667px;font-family:Arial;-inkscape-font-specification:'Arial, Normal'"
       id="path31412" /><path
       d="M 863.22047,325.97882 820.90271,187.6974 h 24.21878 l 22.00524,79.8178 8.20313,29.68754 q 0.52083,-2.21354 7.16147,-28.51566 l 22.00523,-80.98968 h 24.08857 l 20.70315,80.20843 6.90105,26.43232 7.94272,-26.69274 L 987.83,187.6974 h 22.7865 l -43.22924,138.28142 h -24.34898 l -22.00524,-82.8126 -5.33855,-23.56774 -27.99482,106.38034 z"
       style="font-size:266.667px;font-family:Arial;-inkscape-font-specification:'Arial, Normal'"
       id="path31414" /><path
       d="m 1227.674,213.7391 h -126.0418 v -21.87503 h 126.0418 z m 0,57.94278 h -126.0418 v -21.87503 h 126.0418 z"
       style="font-size:266.667px;font-family:Arial;-inkscape-font-specification:'Arial, Normal'"
       id="path31416" /><path
       d="M 1333.5335,325.97882 V 135.09317 h 23.4375 v 190.88565 z"
       style="font-size:266.667px;font-family:Arial;-inkscape-font-specification:'Arial, Normal'"
       id="path31418" /><path
       d="m 1488.091,281.44751 24.2188,2.9948 q -5.7292,21.22398 -21.224,32.94275 -15.4948,11.71876 -39.5833,11.71876 -30.3386,0 -48.1772,-18.61981 -17.7083,-18.75003 -17.7083,-52.47403 0,-34.89587 17.9687,-54.16673 17.9688,-19.27086 46.6147,-19.27086 27.7344,0 45.3125,18.88024 17.5782,18.88023 17.5782,53.12506 0,2.08334 -0.1302,6.25001 h -103.1252 q 1.3021,22.78648 12.8907,34.89587 11.5885,12.10939 28.9063,12.10939 12.8906,0 22.0052,-6.77084 9.1146,-6.77084 14.4531,-21.61461 z m -76.9532,-37.89067 h 77.2137 q -1.5625,-17.44794 -8.8542,-26.17191 -11.198,-13.54168 -29.0365,-13.54168 -16.1459,0 -27.2136,10.80731 -10.9375,10.8073 -12.1094,28.90628 z"
       style="font-size:266.667px;font-family:Arial;-inkscape-font-specification:'Arial, Normal'"
       id="path31420" /><path
       d="M 1547.4661,325.97882 V 205.92659 H 1526.763 V 187.6974 h 20.7031 v -14.71356 q 0,-13.93231 2.474,-20.70315 3.3854,-9.1146 11.8489,-14.71356 8.5938,-5.72918 23.9584,-5.72918 9.8959,0 21.875,2.34376 l -3.5156,20.44273 q -7.2917,-1.30208 -13.8021,-1.30208 -10.6771,0 -15.1042,4.55729 -4.4271,4.5573 -4.4271,17.05732 v 12.76043 h 26.9532 v 18.22919 h -26.9532 v 120.05223 z"
       style="font-size:266.667px;font-family:Arial;-inkscape-font-specification:'Arial, Normal'"
       id="path31422" /><path
       d="m 1666.9975,305.01525 3.3854,20.70315 q -9.8958,2.08334 -17.7083,2.08334 -12.7604,0 -19.7917,-4.03647 -7.0313,-4.03646 -9.8958,-10.54689 -2.8646,-6.64063 -2.8646,-27.7344 v -79.55739 h -17.1876 V 187.6974 h 17.1876 v -34.24484 l 23.3073,-14.06251 v 48.30735 h 23.5677 v 18.22919 h -23.5677 v 80.85947 q 0,10.02605 1.1719,12.89064 1.302,2.86459 4.0364,4.5573 2.8646,1.69271 8.0729,1.69271 3.9063,0 10.2865,-0.91146 z"
       style="font-size:266.667px;font-family:Arial;-inkscape-font-specification:'Arial, Normal'"
       id="path31424" /></g><g
     aria-label="how = right"
     transform="translate(3209.0403,78.330657)"
     id="text50465-1"
     style="font-size:40px;line-height:1.25;white-space:pre;shape-inside:url(#rect50467-8);fill:#318caf"><path
       d="M 540.82424,325.97882 V 135.09317 h 23.43753 v 68.48966 q 16.40627,-19.01044 41.4063,-19.01044 15.3646,0 26.69274,6.1198 11.32814,5.98959 16.14585,16.66669 4.94793,10.6771 4.94793,30.98962 v 87.63032 H 630.01706 V 238.3485 q 0,-17.57815 -7.6823,-25.52086 -7.5521,-8.07293 -21.4844,-8.07293 -10.41668,0 -19.66149,5.46876 -9.11459,5.33854 -13.02085,14.58335 -3.90625,9.2448 -3.90625,25.52086 v 75.65114 z"
       style="font-size:266.667px;font-family:Arial;-inkscape-font-specification:'Arial, Normal'"
       id="path31445" /><path
       d="m 680.53795,256.83811 q 0,-38.41151 21.3542,-56.90111 17.83856,-15.36461 43.48963,-15.36461 28.51566,0 46.61464,18.75003 18.09898,18.61981 18.09898,51.56256 0,26.69274 -8.07292,42.05734 -7.94272,15.2344 -23.30732,23.69795 -15.2344,8.46355 -33.33338,8.46355 -29.03649,0 -47.00526,-18.61981 -17.83857,-18.61982 -17.83857,-53.6459 z m 24.08858,0 q 0,26.56253 11.58855,39.8438 11.58856,13.15105 29.1667,13.15105 17.44794,0 29.0365,-13.28126 11.58855,-13.28127 11.58855,-40.49484 0,-25.65108 -11.71876,-38.80213 -11.58856,-13.28127 -28.90629,-13.28127 -17.57814,0 -29.1667,13.15106 -11.58855,13.15105 -11.58855,39.71359 z"
       style="font-size:266.667px;font-family:Arial;-inkscape-font-specification:'Arial, Normal'"
       id="path31447" /><path
       d="M 863.22047,325.97882 820.90271,187.6974 h 24.21878 l 22.00524,79.8178 8.20313,29.68754 q 0.52083,-2.21354 7.16147,-28.51566 l 22.00523,-80.98968 h 24.08857 l 20.70315,80.20843 6.90105,26.43232 7.94272,-26.69274 L 987.83,187.6974 h 22.7865 l -43.22924,138.28142 h -24.34898 l -22.00524,-82.8126 -5.33855,-23.56774 -27.99482,106.38034 z"
       style="font-size:266.667px;font-family:Arial;-inkscape-font-specification:'Arial, Normal'"
       id="path31449" /><path
       d="m 1227.674,213.7391 h -126.0418 v -21.87503 h 126.0418 z m 0,57.94278 h -126.0418 v -21.87503 h 126.0418 z"
       style="font-size:266.667px;font-family:Arial;-inkscape-font-specification:'Arial, Normal'"
       id="path31451" /><path
       d="M 1333.7939,325.97882 V 187.6974 h 21.0938 v 20.96356 q 8.0729,-14.71355 14.8438,-19.40106 6.901,-4.68751 15.1042,-4.68751 11.8489,0 24.0885,7.5521 l -8.0729,21.74481 q -8.5938,-5.07813 -17.1875,-5.07813 -7.6823,0 -13.8021,4.68751 -6.1198,4.5573 -8.724,12.76043 -3.9062,12.50002 -3.9062,27.34378 v 72.39593 z"
       style="font-size:266.667px;font-family:Arial;-inkscape-font-specification:'Arial, Normal'"
       id="path31453" /><path
       d="m 1423.2472,162.04632 v -26.95315 h 23.4375 v 26.95315 z m 0,163.9325 V 187.6974 h 23.4375 v 138.28142 z"
       style="font-size:266.667px;font-family:Arial;-inkscape-font-specification:'Arial, Normal'"
       id="path31455" /><path
       d="m 1478.1951,337.43716 22.7865,3.38542 q 1.4323,10.54689 7.9427,15.36461 8.724,6.51042 23.8282,6.51042 16.2761,0 25.1302,-6.51042 8.8542,-6.51043 11.9792,-18.22919 1.8229,-7.16147 1.6927,-30.07816 -15.3646,18.09898 -38.2813,18.09898 -28.5156,0 -44.1406,-20.57295 -15.6251,-20.57294 -15.6251,-49.34901 0,-19.79169 7.1615,-36.45838 7.1615,-16.7969 20.7032,-25.91149 13.6718,-9.1146 32.0312,-9.1146 24.4792,0 40.3647,19.79169 V 187.6974 h 21.6146 v 119.53139 q 0,32.29171 -6.6406,45.70318 -6.5105,13.54169 -20.8334,21.3542 -14.1927,7.81251 -35.0261,7.81251 -24.7396,0 -39.974,-11.19793 -15.2344,-11.06773 -14.7136,-33.46359 z m 19.4011,-83.07301 q 0,27.21357 10.8073,39.71359 10.8073,12.50001 27.0834,12.50001 16.1458,0 27.0833,-12.36981 10.9376,-12.50001 10.9376,-39.06254 0,-25.39066 -11.3282,-38.2813 -11.1979,-12.89064 -27.0833,-12.89064 -15.6251,0 -26.5626,12.76043 -10.9375,12.63023 -10.9375,37.63026 z"
       style="font-size:266.667px;font-family:Arial;-inkscape-font-specification:'Arial, Normal'"
       id="path31457" /><path
       d="M 1630.9297,325.97882 V 135.09317 h 23.4375 v 68.48966 q 16.4063,-19.01044 41.4063,-19.01044 15.3646,0 26.6928,6.1198 11.3281,5.98959 16.1458,16.66669 4.948,10.6771 4.948,30.98962 v 87.63032 h -23.4376 V 238.3485 q 0,-17.57815 -7.6823,-25.52086 -7.5521,-8.07293 -21.4844,-8.07293 -10.4167,0 -19.6615,5.46876 -9.1146,5.33854 -13.0208,14.58335 -3.9063,9.2448 -3.9063,25.52086 v 75.65114 z"
       style="font-size:266.667px;font-family:Arial;-inkscape-font-specification:'Arial, Normal'"
       id="path31459" /><path
       d="m 1830.5394,305.01525 3.3854,20.70315 q -9.8958,2.08334 -17.7083,2.08334 -12.7605,0 -19.7917,-4.03647 -7.0313,-4.03646 -9.8959,-10.54689 -2.8646,-6.64063 -2.8646,-27.7344 v -79.55739 h -17.1875 V 187.6974 h 17.1875 v -34.24484 l 23.3074,-14.06251 v 48.30735 h 23.5677 v 18.22919 h -23.5677 v 80.85947 q 0,10.02605 1.1718,12.89064 1.3021,2.86459 4.0365,4.5573 2.8646,1.69271 8.0729,1.69271 3.9063,0 10.2865,-0.91146 z"
       style="font-size:266.667px;font-family:Arial;-inkscape-font-specification:'Arial, Normal'"
       id="path31461" /></g><g
     aria-label="how = inner"
     transform="translate(361.20373,2171.319)"
     id="text50465-2"
     style="font-size:40px;line-height:1.25;white-space:pre;shape-inside:url(#rect50467-1);fill:#318caf"><path
       d="M 540.82424,325.97882 V 135.09317 h 23.43753 v 68.48966 q 16.40627,-19.01044 41.4063,-19.01044 15.3646,0 26.69274,6.1198 11.32814,5.98959 16.14585,16.66669 4.94793,10.6771 4.94793,30.98962 v 87.63032 H 630.01706 V 238.3485 q 0,-17.57815 -7.6823,-25.52086 -7.5521,-8.07293 -21.4844,-8.07293 -10.41668,0 -19.66149,5.46876 -9.11459,5.33854 -13.02085,14.58335 -3.90625,9.2448 -3.90625,25.52086 v 75.65114 z"
       style="font-size:266.667px;font-family:Arial;-inkscape-font-specification:'Arial, Normal'"
       id="path31519" /><path
       d="m 680.53795,256.83811 q 0,-38.41151 21.3542,-56.90111 17.83856,-15.36461 43.48963,-15.36461 28.51566,0 46.61464,18.75003 18.09898,18.61981 18.09898,51.56256 0,26.69274 -8.07292,42.05734 -7.94272,15.2344 -23.30732,23.69795 -15.2344,8.46355 -33.33338,8.46355 -29.03649,0 -47.00526,-18.61981 -17.83857,-18.61982 -17.83857,-53.6459 z m 24.08858,0 q 0,26.56253 11.58855,39.8438 11.58856,13.15105 29.1667,13.15105 17.44794,0 29.0365,-13.28126 11.58855,-13.28127 11.58855,-40.49484 0,-25.65108 -11.71876,-38.80213 -11.58856,-13.28127 -28.90629,-13.28127 -17.57814,0 -29.1667,13.15106 -11.58855,13.15105 -11.58855,39.71359 z"
       style="font-size:266.667px;font-family:Arial;-inkscape-font-specification:'Arial, Normal'"
       id="path31521" /><path
       d="M 863.22047,325.97882 820.90271,187.6974 h 24.21878 l 22.00524,79.8178 8.20313,29.68754 q 0.52083,-2.21354 7.16147,-28.51566 l 22.00523,-80.98968 h 24.08857 l 20.70315,80.20843 6.90105,26.43232 7.94272,-26.69274 L 987.83,187.6974 h 22.7865 l -43.22924,138.28142 h -24.34898 l -22.00524,-82.8126 -5.33855,-23.56774 -27.99482,106.38034 z"
       style="font-size:266.667px;font-family:Arial;-inkscape-font-specification:'Arial, Normal'"
       id="path31523" /><path
       d="m 1227.674,213.7391 h -126.0418 v -21.87503 h 126.0418 z m 0,57.94278 h -126.0418 v -21.87503 h 126.0418 z"
       style="font-size:266.667px;font-family:Arial;-inkscape-font-specification:'Arial, Normal'"
       id="path31525" /><path
       d="m 1334.1846,162.04632 v -26.95315 h 23.4375 v 26.95315 z m 0,163.9325 V 187.6974 h 23.4375 v 138.28142 z"
       style="font-size:266.667px;font-family:Arial;-inkscape-font-specification:'Arial, Normal'"
       id="path31527" /><path
       d="M 1393.4295,325.97882 V 187.6974 h 21.0937 v 19.66148 q 15.2344,-22.78649 44.0105,-22.78649 12.5,0 22.9167,4.5573 10.5469,4.42709 15.7552,11.71877 5.2084,7.29167 7.2917,17.31772 1.3021,6.51043 1.3021,22.78649 v 85.02615 h -23.4375 v -84.11469 q 0,-14.32293 -2.7344,-21.35419 -2.7344,-7.16147 -9.7657,-11.32814 -6.901,-4.29688 -16.276,-4.29688 -14.974,0 -25.9115,9.50522 -10.8073,9.50522 -10.8073,36.06775 v 75.52093 z"
       style="font-size:266.667px;font-family:Arial;-inkscape-font-specification:'Arial, Normal'"
       id="path31529" /><path
       d="M 1541.8671,325.97882 V 187.6974 h 21.0938 v 19.66148 q 15.2344,-22.78649 44.0105,-22.78649 12.5,0 22.9167,4.5573 10.5469,4.42709 15.7552,11.71877 5.2084,7.29167 7.2917,17.31772 1.3021,6.51043 1.3021,22.78649 v 85.02615 h -23.4376 v -84.11469 q 0,-14.32293 -2.7343,-21.35419 -2.7344,-7.16147 -9.7657,-11.32814 -6.901,-4.29688 -16.276,-4.29688 -14.974,0 -25.9115,9.50522 -10.8073,9.50522 -10.8073,36.06775 v 75.52093 z"
       style="font-size:266.667px;font-family:Arial;-inkscape-font-specification:'Arial, Normal'"
       id="path31531" /><path
       d="m 1784.9664,281.44751 24.2188,2.9948 q -5.7292,21.22398 -21.224,32.94275 -15.4948,11.71876 -39.5834,11.71876 -30.3386,0 -48.1771,-18.61981 -17.7084,-18.75003 -17.7084,-52.47403 0,-34.89587 17.9688,-54.16673 17.9688,-19.27086 46.6146,-19.27086 27.7344,0 45.3126,18.88024 17.5781,18.88023 17.5781,53.12506 0,2.08334 -0.1302,6.25001 h -103.1251 q 1.3021,22.78648 12.8906,34.89587 11.5886,12.10939 28.9063,12.10939 12.8907,0 22.0053,-6.77084 9.1146,-6.77084 14.4531,-21.61461 z m -76.9532,-37.89067 h 77.2136 q -1.5625,-17.44794 -8.8542,-26.17191 -11.1979,-13.54168 -29.0364,-13.54168 -16.1459,0 -27.2136,10.80731 -10.9375,10.8073 -12.1094,28.90628 z"
       style="font-size:266.667px;font-family:Arial;-inkscape-font-specification:'Arial, Normal'"
       id="path31533" /><path
       d="M 1838.482,325.97882 V 187.6974 h 21.0938 v 20.96356 q 8.0729,-14.71355 14.8438,-19.40106 6.901,-4.68751 15.1042,-4.68751 11.8489,0 24.0885,7.5521 l -8.0729,21.74481 q -8.5938,-5.07813 -17.1875,-5.07813 -7.6823,0 -13.8021,4.68751 -6.1198,4.5573 -8.724,12.76043 -3.9062,12.50002 -3.9062,27.34378 v 72.39593 z"
       style="font-size:266.667px;font-family:Arial;-inkscape-font-specification:'Arial, Normal'"
       id="path31535" /></g><g
     aria-label="how = outer"
     transform="translate(3147.4704,2143.9579)"
     id="text50465-2-6"
     style="font-size:40px;line-height:1.25;white-space:pre;shape-inside:url(#rect50467-1-3);fill:#318caf"><path
       d="M 540.82424,325.97882 V 135.09317 h 23.43753 v 68.48966 q 16.40627,-19.01044 41.4063,-19.01044 15.3646,0 26.69274,6.1198 11.32814,5.98959 16.14585,16.66669 4.94793,10.6771 4.94793,30.98962 v 87.63032 H 630.01706 V 238.3485 q 0,-17.57815 -7.6823,-25.52086 -7.5521,-8.07293 -21.4844,-8.07293 -10.41668,0 -19.66149,5.46876 -9.11459,5.33854 -13.02085,14.58335 -3.90625,9.2448 -3.90625,25.52086 v 75.65114 z"
       style="font-size:266.667px;font-family:Arial;-inkscape-font-specification:'Arial, Normal'"
       id="path31482" /><path
       d="m 680.53795,256.83811 q 0,-38.41151 21.3542,-56.90111 17.83856,-15.36461 43.48963,-15.36461 28.51566,0 46.61464,18.75003 18.09898,18.61981 18.09898,51.56256 0,26.69274 -8.07292,42.05734 -7.94272,15.2344 -23.30732,23.69795 -15.2344,8.46355 -33.33338,8.46355 -29.03649,0 -47.00526,-18.61981 -17.83857,-18.61982 -17.83857,-53.6459 z m 24.08858,0 q 0,26.56253 11.58855,39.8438 11.58856,13.15105 29.1667,13.15105 17.44794,0 29.0365,-13.28126 11.58855,-13.28127 11.58855,-40.49484 0,-25.65108 -11.71876,-38.80213 -11.58856,-13.28127 -28.90629,-13.28127 -17.57814,0 -29.1667,13.15106 -11.58855,13.15105 -11.58855,39.71359 z"
       style="font-size:266.667px;font-family:Arial;-inkscape-font-specification:'Arial, Normal'"
       id="path31484" /><path
       d="M 863.22047,325.97882 820.90271,187.6974 h 24.21878 l 22.00524,79.8178 8.20313,29.68754 q 0.52083,-2.21354 7.16147,-28.51566 l 22.00523,-80.98968 h 24.08857 l 20.70315,80.20843 6.90105,26.43232 7.94272,-26.69274 L 987.83,187.6974 h 22.7865 l -43.22924,138.28142 h -24.34898 l -22.00524,-82.8126 -5.33855,-23.56774 -27.99482,106.38034 z"
       style="font-size:266.667px;font-family:Arial;-inkscape-font-specification:'Arial, Normal'"
       id="path31486" /><path
       d="m 1227.674,213.7391 h -126.0418 v -21.87503 h 126.0418 z m 0,57.94278 h -126.0418 v -21.87503 h 126.0418 z"
       style="font-size:266.667px;font-family:Arial;-inkscape-font-specification:'Arial, Normal'"
       id="path31488" /><path
       d="m 1325.3304,256.83811 q 0,-38.41151 21.3542,-56.90111 17.8385,-15.36461 43.4896,-15.36461 28.5157,0 46.6146,18.75003 18.099,18.61981 18.099,51.56256 0,26.69274 -8.0729,42.05734 -7.9427,15.2344 -23.3073,23.69795 -15.2344,8.46355 -33.3334,8.46355 -29.0365,0 -47.0053,-18.61981 -17.8385,-18.61982 -17.8385,-53.6459 z m 24.0885,0 q 0,26.56253 11.5886,39.8438 11.5886,13.15105 29.1667,13.15105 17.4479,0 29.0365,-13.28126 11.5886,-13.28127 11.5886,-40.49484 0,-25.65108 -11.7188,-38.80213 -11.5886,-13.28127 -28.9063,-13.28127 -17.5781,0 -29.1667,13.15106 -11.5886,13.15105 -11.5886,39.71359 z"
       style="font-size:266.667px;font-family:Arial;-inkscape-font-specification:'Arial, Normal'"
       id="path31490" /><path
       d="m 1573.1172,325.97882 v -20.31253 q -16.1459,23.43753 -43.8803,23.43753 -12.2396,0 -22.9167,-4.68751 -10.5468,-4.6875 -15.7552,-11.71876 -5.0781,-7.16147 -7.1615,-17.44794 -1.4322,-6.90105 -1.4322,-21.87502 V 187.6974 h 23.4375 v 76.6928 q 0,18.3594 1.4323,24.73961 2.2135,9.24481 9.375,14.58335 7.1615,5.20834 17.7083,5.20834 10.5469,0 19.7917,-5.33854 9.2448,-5.46876 13.0209,-14.71356 3.9062,-9.37502 3.9062,-27.08337 V 187.6974 h 23.4376 v 138.28142 z"
       style="font-size:266.667px;font-family:Arial;-inkscape-font-specification:'Arial, Normal'"
       id="path31492" /><path
       d="m 1682.1016,305.01525 3.3855,20.70315 q -9.8959,2.08334 -17.7084,2.08334 -12.7604,0 -19.7917,-4.03647 -7.0312,-4.03646 -9.8958,-10.54689 -2.8646,-6.64063 -2.8646,-27.7344 v -79.55739 h -17.1875 V 187.6974 h 17.1875 v -34.24484 l 23.3073,-14.06251 v 48.30735 h 23.5677 v 18.22919 h -23.5677 v 80.85947 q 0,10.02605 1.1719,12.89064 1.3021,2.86459 4.0364,4.5573 2.8646,1.69271 8.073,1.69271 3.9062,0 10.2864,-0.91146 z"
       style="font-size:266.667px;font-family:Arial;-inkscape-font-specification:'Arial, Normal'"
       id="path31494" /><path
       d="m 1799.5498,281.44751 24.2188,2.9948 q -5.7292,21.22398 -21.224,32.94275 -15.4948,11.71876 -39.5834,11.71876 -30.3386,0 -48.1771,-18.61981 -17.7084,-18.75003 -17.7084,-52.47403 0,-34.89587 17.9688,-54.16673 17.9687,-19.27086 46.6146,-19.27086 27.7344,0 45.3126,18.88024 17.5781,18.88023 17.5781,53.12506 0,2.08334 -0.1302,6.25001 h -103.1251 q 1.3021,22.78648 12.8906,34.89587 11.5886,12.10939 28.9063,12.10939 12.8906,0 22.0052,-6.77084 9.1146,-6.77084 14.4532,-21.61461 z m -76.9532,-37.89067 h 77.2136 q -1.5625,-17.44794 -8.8542,-26.17191 -11.1979,-13.54168 -29.0365,-13.54168 -16.1458,0 -27.2136,10.80731 -10.9375,10.8073 -12.1093,28.90628 z"
       style="font-size:266.667px;font-family:Arial;-inkscape-font-specification:'Arial, Normal'"
       id="path31496" /><path
       d="M 1853.0654,325.97882 V 187.6974 h 21.0938 v 20.96356 q 8.0729,-14.71355 14.8438,-19.40106 6.901,-4.68751 15.1041,-4.68751 11.849,0 24.0886,7.5521 l -8.0729,21.74481 q -8.5938,-5.07813 -17.1875,-5.07813 -7.6823,0 -13.8021,4.68751 -6.1198,4.5573 -8.724,12.76043 -3.9063,12.50002 -3.9063,27.34378 v 72.39593 z"
       style="font-size:266.667px;font-family:Arial;-inkscape-font-specification:'Arial, Normal'"
       id="path31498" /></g></svg>
